<svg width="1162" height="350" viewBox="0 0 1162 350" fill="none" xmlns="http://www.w3.org/2000/svg">
<path d="M283.413 295.75C260.758 295.75 240.974 290.47 224.058 279.911C207.445 269.05 194.456 254.418 185.093 236.014C176.031 217.611 171.5 196.794 171.5 173.563C171.5 159.685 173.161 146.561 176.484 134.192C179.807 121.822 184.64 110.659 190.983 100.703C197.628 90.4456 205.482 81.6964 214.543 74.4557C223.907 67.2149 234.328 61.6336 245.807 57.7115C257.587 53.4878 270.273 51.3759 283.866 51.3759C301.989 51.3759 317.999 54.5437 331.893 60.8793C346.09 66.9132 357.719 75.6624 366.781 87.1269C375.843 98.5914 381.582 112.469 383.999 128.761H341.861C339.747 119.408 335.971 111.564 330.534 105.229C325.097 98.5914 318.301 93.6134 310.145 90.2947C302.292 86.9761 293.381 85.3167 283.413 85.3167C273.747 85.3167 265.138 86.8252 257.587 89.8422C250.035 92.8591 243.541 97.0829 238.104 102.513C232.667 107.642 228.136 113.978 224.511 121.52C220.887 128.761 218.168 136.756 216.356 145.505C214.543 154.254 213.637 163.456 213.637 173.11C213.637 189.402 216.054 204.336 220.887 217.912C226.022 231.187 233.724 241.897 243.994 250.043C254.264 257.887 267.404 261.809 283.413 261.809C298.516 261.809 310.9 258.491 320.566 251.853C330.232 244.914 337.179 234.506 341.408 220.628H383.545C380.827 235.411 375.088 248.535 366.328 259.999C357.568 271.162 346.241 279.911 332.346 286.247C318.452 292.582 302.141 295.75 283.413 295.75Z" fill="black"/>
<path d="M408.345 289.867V0H449.576V110.659L445.951 106.134C450.18 94.0659 456.221 84.1099 464.075 76.2658C471.928 68.12 481.141 61.9352 491.713 57.7115C502.285 53.4878 513.764 51.3759 526.148 51.3759C542.157 51.3759 556.354 54.8454 568.738 61.7844C581.123 68.7234 590.789 79.1319 597.736 93.01C604.683 106.888 608.157 124.236 608.157 145.053V289.867H566.926V147.768C566.926 127.554 561.942 112.319 551.974 102.061C542.006 91.5015 529.018 86.2218 513.008 86.2218C501.832 86.2218 491.411 89.2388 481.745 95.2727C472.079 101.307 464.226 109.603 458.185 120.163C452.446 130.42 449.576 142.488 449.576 156.366V289.867H408.345Z" fill="black"/>
<path d="M709.674 295.75C686.113 295.75 667.385 289.414 653.491 276.743C639.596 264.072 632.649 247.479 632.649 226.963C632.649 213.99 635.669 202.828 641.71 193.475C647.751 183.821 656.662 175.826 668.443 169.49C680.525 163.154 695.175 158.78 712.392 156.366L764.95 148.673C775.22 147.165 781.715 144.298 784.433 140.075C787.454 135.851 788.964 130.873 788.964 125.141V124.688C788.964 116.844 787.152 109.905 783.527 103.871C779.902 97.8371 774.314 93.1608 766.763 89.8422C759.513 86.2218 750.149 84.4116 738.671 84.4116C721.454 84.4116 708.314 87.4286 699.253 93.4625C690.191 99.1948 684.452 107.642 682.035 118.805H640.804C642.314 105.229 647.298 93.4625 655.756 83.5065C664.214 73.2489 675.39 65.4048 689.285 59.9742C703.481 54.242 719.944 51.3759 738.671 51.3759C759.211 51.3759 776.278 54.6945 789.87 61.3319C803.463 67.6675 813.582 76.7184 820.227 88.4845C826.872 100.251 830.195 114.129 830.195 130.119V289.867H791.23V235.109L795.76 237.824C790.021 253.211 782.621 265.128 773.559 273.575C764.799 281.721 754.982 287.453 744.108 290.772C733.234 294.091 721.756 295.75 709.674 295.75ZM720.548 262.714C731.12 262.714 740.484 260.904 748.639 257.284C757.097 253.663 764.346 248.535 770.387 241.897C776.429 235.26 780.959 227.265 783.98 217.912C787.303 208.56 788.964 198.302 788.964 187.139V158.629L799.385 167.68C793.646 170.697 788.209 172.96 783.074 174.468C778.241 175.675 772.351 176.882 765.403 178.088L719.188 185.782C705.596 187.894 694.722 192.117 686.566 198.453C678.713 204.789 674.786 213.689 674.786 225.153C674.786 236.617 678.864 245.819 687.019 252.758C695.477 259.396 706.653 262.714 720.548 262.714Z" fill="black"/>
<path d="M866.354 289.867V57.259H907.585V122.425L903.507 121.52C908.34 104.625 914.23 91.5015 921.177 82.1489C928.125 72.7963 936.129 66.3098 945.191 62.6895C954.555 59.0691 964.825 57.259 976.001 57.259H990.5V97.988H972.83C959.237 97.988 947.457 101.156 937.489 107.491C927.823 113.525 920.422 122.275 915.287 133.739C910.152 145.203 907.585 158.931 907.585 174.921V289.867H866.354Z" fill="black"/>
<path d="M101.5 49.7854C101.5 67.933 92.344 84.5118 80.9333 98.6233C64.1211 119.415 53.9039 146.012 53.9039 175C53.9039 203.988 64.1215 230.584 80.9335 251.375C92.3443 265.486 101.5 282.064 101.5 300.212V350H34.4068V291.989C34.4068 272.962 25.1272 255.131 9.544 244.214L0 237.528V110.882L9.54399 104.195C25.1272 93.2779 34.4068 75.4467 34.4068 56.4197V0H101.5V49.7854Z" fill="black"/>
<path d="M1060.5 49.7854C1060.5 67.933 1069.66 84.5118 1081.07 98.6233C1097.88 119.415 1108.1 146.012 1108.1 175C1108.1 203.988 1097.88 230.584 1081.07 251.375C1069.66 265.486 1060.5 282.064 1060.5 300.212V350H1127.59V291.989C1127.59 272.962 1136.87 255.131 1152.46 244.214L1162 237.528V110.882L1152.46 104.195C1136.87 93.2779 1127.59 75.4467 1127.59 56.4197V0H1060.5V49.7854Z" fill="black"/>
</svg>
